<?xml version="1.0" encoding="utf-8"?>
<!-- Generator: Adobe Illustrator 17.0.2, SVG Export Plug-In . SVG Version: 6.00 Build 0)  -->
<!DOCTYPE svg PUBLIC "-//W3C//DTD SVG 1.1//EN" "http://www.w3.org/Graphics/SVG/1.1/DTD/svg11.dtd">
<svg version="1.1" id="Layer_1" xmlns="http://www.w3.org/2000/svg" xmlns:xlink="http://www.w3.org/1999/xlink" x="0px" y="0px"
	 width="350px" height="30px" viewBox="0 0 350 30" enable-background="new 0 0 350 30" xml:space="preserve">
<g>
	<path fill="#FFFFFF" d="M17.539,15.119c0,6.532-4.363,8.726-8.141,8.726c-4.046,0-8.141-2.487-8.141-8.726
		c0-5.972,4.095-8.8,8.141-8.8C13.176,6.32,17.539,8.83,17.539,15.119z M13.176,15.119c0-3.461-1.584-5.655-3.778-5.655
		c-2.486,0-4.046,2.194-4.046,5.655c0,3.412,1.56,5.606,4.046,5.606C11.592,20.726,13.176,18.531,13.176,15.119z"/>
	<path fill="#FFFFFF" d="M34.844,11.317c0,1.877-1.536,4.924-5.509,4.924h-1.56v4.314h1.56v3.047h-7.386v-3.047h1.828V9.489h-1.828
		V6.417h7.678C32.991,6.417,34.844,8.879,34.844,11.317z M30.554,11.317c0-0.902-0.634-1.828-1.853-1.828h-0.926v3.705h0.926
		C29.92,13.194,30.554,12.243,30.554,11.317z"/>
	<path fill="#FFFFFF" d="M55.196,16.582l-0.902,7.02H39.937v-3.047h1.536V9.562h-1.536V6.515h13.431l1.536,5.801h-3.071
		c-0.292-1.219-0.609-2.754-2.438-2.754h-3.973v3.681h2.145v-1.243h3.047v5.508h-3.047v-1.218h-2.145v4.265h4.899
		c0.902,0,1.511-2.145,1.828-3.973H55.196z"/>
	<path fill="#FFFFFF" d="M75.817,20.555v3.071h-4.241c-0.634-0.292-1.877-1.219-1.877-3.364c0-1.219-0.926-3.656-3.363-3.973v4.265
		h1.56v3.071h-7.045v-3.071h1.828V9.562h-1.828V6.515h7.361c3.924,0,5.143,2.73,5.143,4.899c0,1.828-0.585,3.022-1.511,3.949
		c0.926,1.243,1.511,2.779,1.511,4.583c0,0.609,0.633,0.609,0.633,0.609H75.817z M67.578,13.242c1.438,0,2.121-0.902,2.121-1.828
		s-0.609-1.852-1.803-1.852h-1.56v3.681H67.578z"/>
	<path fill="#FFFFFF" d="M90.197,6.564c0,0,5.752,13.406,6.069,13.991h1.828v3.047h-7.02v-3.023h0.902
		c-0.292-0.609-0.536-1.218-0.853-1.852h-4.826l-0.683,1.852h0.902v3.023h-6.069v-3.047h1.828
		c0.585-1.828,5.728-13.991,5.728-13.991h2.242H90.197z M90.051,15.68l-1.438-3.388l-1.341,3.388H90.051z"/>
	<path fill="#FFFFFF" d="M114.522,6.49l1.852,5.801h-3.047l-0.292-0.926c-0.317-0.585-0.926-1.804-1.243-1.804h-1.853V20.53h1.56
		v3.071h-7.044V20.53h1.536V9.562h-1.536c-0.609,0-1.243,1.219-1.536,1.804l-0.292,0.926H99.58l1.852-5.801H114.522z"/>
	<path fill="#FFFFFF" d="M121.979,6.588h6.996v3.047h-1.536v10.969h1.536v3.023h-6.996v-3.023h1.536V9.635h-1.536V6.588z"/>
	<path fill="#FFFFFF" d="M149.986,15.119c0,6.532-4.363,8.726-8.141,8.726c-4.046,0-8.141-2.487-8.141-8.726
		c0-5.972,4.095-8.8,8.141-8.8C145.623,6.32,149.986,8.83,149.986,15.119z M145.623,15.119c0-3.461-1.584-5.655-3.778-5.655
		c-2.486,0-4.046,2.194-4.046,5.655c0,3.412,1.56,5.606,4.046,5.606C144.039,20.726,145.623,18.531,145.623,15.119z"/>
	<path fill="#FFFFFF" d="M165.024,6.539h6.411v3.047h-1.536v14.04h-2.437l-7.947-10.676v7.629c0.317,0,1.853,0,1.853,0v3.047h-6.411
		v-3.047h1.828V9.586h-1.828V6.539h5.46l6.435,9.14V9.586h-1.828V6.539z"/>
	<path fill="#FFFFFF" d="M202.95,6.539h6.093V9.61h-1.536c-0.292,0-0.292,0.268-0.292,0.268l-4.583,13.772h-2.462l-2.755-8.872
		l-3.046,8.872h-2.146l-4.265-13.431c0-0.341-0.292-0.609-0.609-0.609h-1.536V6.539h7.337V9.61h-1.219l1.828,6.094l3.071-9.165
		h2.121l3.071,9.165l1.828-6.094h-0.902V6.539z"/>
	<path fill="#FFFFFF" d="M219.523,6.564c0,0,5.752,13.406,6.07,13.991h1.828v3.047h-7.02v-3.023h0.902
		c-0.292-0.609-0.536-1.218-0.853-1.852h-4.827l-0.682,1.852h0.902v3.023h-6.069v-3.047h1.828
		c0.585-1.828,5.728-13.991,5.728-13.991h2.242H219.523z M219.377,15.68l-1.438-3.388l-1.341,3.388H219.377z"/>
	<path fill="#FFFFFF" d="M246.943,20.555v3.071h-4.241c-0.633-0.292-1.877-1.219-1.877-3.364c0-1.219-0.927-3.656-3.364-3.973v4.265
		h1.56v3.071h-7.044v-3.071h1.828V9.562h-1.828V6.515h7.361c3.924,0,5.143,2.73,5.143,4.899c0,1.828-0.585,3.022-1.511,3.949
		c0.927,1.243,1.511,2.779,1.511,4.583c0,0.609,0.633,0.609,0.633,0.609H246.943z M238.705,13.242c1.438,0,2.121-0.902,2.121-1.828
		s-0.61-1.852-1.804-1.852h-1.56v3.681H238.705z"/>
	<path fill="#FFFFFF" d="M276.948,15.07c0,4.899-3.778,8.531-8.336,8.531h-7.288V20.53h1.462V9.61h-1.462V6.515h7.288
		C273.511,6.515,276.948,10.171,276.948,15.07z M266.784,20.53h1.268c3.632,0,4.899-2.73,4.899-5.46c0-2.754-1.609-5.46-4.899-5.46
		h-1.268V20.53z"/>
	<path fill="#FFFFFF" d="M281.602,6.588h6.996v3.047h-1.536v10.969h1.536v3.023h-6.996v-3.023h1.536V9.635h-1.536V6.588z"/>
	<path fill="#FFFFFF" d="M303.222,6.564c0,0,5.752,13.406,6.07,13.991h1.828v3.047h-7.02v-3.023h0.902
		c-0.292-0.609-0.536-1.218-0.853-1.852h-4.827l-0.682,1.852h0.902v3.023h-6.069v-3.047h1.828
		c0.585-1.828,5.728-13.991,5.728-13.991h2.242H303.222z M303.076,15.68l-1.438-3.388l-1.341,3.388H303.076z"/>
	<path fill="#FFFFFF" d="M330.643,20.555v3.071h-4.241c-0.634-0.292-1.877-1.219-1.877-3.364c0-1.219-0.927-3.656-3.364-3.973v4.265
		h1.56v3.071h-7.044v-3.071h1.828V9.562h-1.828V6.515h7.361c3.924,0,5.143,2.73,5.143,4.899c0,1.828-0.585,3.022-1.511,3.949
		c0.927,1.243,1.511,2.779,1.511,4.583c0,0.609,0.633,0.609,0.633,0.609H330.643z M322.404,13.242c1.438,0,2.121-0.902,2.121-1.828
		s-0.61-1.852-1.804-1.852h-1.56v3.681H322.404z"/>
	<path fill="#FFFFFF" d="M342.561,8.392V6.564h5.46v3.022h-1.511c0,0-0.292,0.317-3.656,5.777c-0.292,0.317-0.292,0.927-0.292,1.268
		v3.9h1.487v3.071h-6.996V20.53h1.536v-3.9c0-0.488-0.195-1.048-0.317-1.268c-3.339-5.46-3.657-5.777-3.657-5.777h-1.511V6.564
		h6.386v3.022h-0.317l1.877,2.754l1.511-2.754V8.392z"/>
</g>
</svg>
