<?xml version="1.0" encoding="utf-8"?>
<!-- Generator: Adobe Illustrator 17.0.2, SVG Export Plug-In . SVG Version: 6.00 Build 0)  -->
<!DOCTYPE svg PUBLIC "-//W3C//DTD SVG 1.1//EN" "http://www.w3.org/Graphics/SVG/1.1/DTD/svg11.dtd">
<svg version="1.1" id="Layer_1" xmlns="http://www.w3.org/2000/svg" xmlns:xlink="http://www.w3.org/1999/xlink" x="0px" y="0px"
	 width="580px" height="220px" viewBox="0 0 580 220" enable-background="new 0 0 580 220" xml:space="preserve">
<path fill="#FFFFFF" d="M140.322,173.464c-0.828-0.648-2.202-0.972-4.122-0.972h-4.68v12.582h2.124v-4.23h2.79l3.006,4.23h2.7
	l-3.294-4.572c1.812-0.54,2.718-1.848,2.718-3.924C141.564,175.15,141.15,174.112,140.322,173.464z M136.29,178.918h-2.646v-4.5h2.7
	c1.14,0,1.932,0.153,2.376,0.459c0.444,0.306,0.666,0.87,0.666,1.692c0,0.822-0.216,1.419-0.648,1.791
	C138.307,178.732,137.49,178.918,136.29,178.918L136.29,178.918z"/>
<path fill="#FFFFFF" d="M147.324,172.492v12.582h9.054v-1.998h-6.93v-3.366h6.03v-1.89h-6.03v-3.33h6.714v-1.998H147.324z"/>
<path fill="#FFFFFF" d="M166.116,172.492h-4.32v12.582h2.124v-3.69h2.232c1.848,0,3.219-0.354,4.113-1.062
	c0.894-0.708,1.341-1.824,1.341-3.348c0-1.524-0.438-2.652-1.314-3.384C169.416,172.858,168.024,172.492,166.116,172.492
	L166.116,172.492z M166.386,179.458h-2.466v-5.04h2.16c1.152,0,1.998,0.18,2.538,0.54c0.54,0.36,0.81,0.975,0.81,1.845
	c0,0.87-0.213,1.53-0.639,1.98C168.363,179.233,167.562,179.458,166.386,179.458L166.386,179.458z"/>
<path fill="#FFFFFF" d="M187.068,178.693c0,1.266-0.429,2.343-1.287,3.231c-0.858,0.888-1.911,1.332-3.159,1.332
	c-1.248,0-2.301-0.444-3.159-1.332c-0.858-0.888-1.287-1.965-1.287-3.231c0-1.266,0.429-2.343,1.287-3.231
	c0.858-0.888,1.911-1.332,3.159-1.332c1.248,0,2.301,0.444,3.159,1.332C186.639,176.35,187.068,177.427,187.068,178.693z
	 M189.246,178.693c0-1.854-0.636-3.402-1.908-4.644c-1.272-1.242-2.844-1.863-4.716-1.863c-1.872,0-3.444,0.621-4.716,1.863
	c-1.272,1.242-1.908,2.79-1.908,4.644c0,1.854,0.636,3.402,1.908,4.644c1.272,1.242,2.844,1.863,4.716,1.863
	c1.872,0,3.444-0.621,4.716-1.863C188.61,182.095,189.246,180.547,189.246,178.693z"/>
<path fill="#FFFFFF" d="M203.43,173.464c-0.828-0.648-2.202-0.972-4.122-0.972h-4.68v12.582h2.124v-4.23h2.79l3.006,4.23h2.7
	l-3.294-4.572c1.812-0.54,2.718-1.848,2.718-3.924C204.672,175.15,204.258,174.112,203.43,173.464z M199.398,178.918h-2.646v-4.5
	h2.7c1.14,0,1.932,0.153,2.376,0.459c0.444,0.306,0.666,0.87,0.666,1.692c0,0.822-0.216,1.419-0.648,1.791
	C201.414,178.732,200.598,178.918,199.398,178.918L199.398,178.918z"/>
<path fill="#FFFFFF" d="M218.82,174.436v-1.944h-9.756v1.944h3.816v10.638h2.124v-10.638H218.82z"/>
<path fill="#FFFFFF" d="M229.512,174.472c0.636,0.216,1.14,0.492,1.512,0.828l1.134-1.602c-0.576-0.48-1.26-0.852-2.052-1.116
	c-0.792-0.264-1.59-0.396-2.394-0.396c-1.248,0-2.295,0.315-3.141,0.945c-0.846,0.63-1.269,1.527-1.269,2.691
	c0,1.164,0.372,2.028,1.116,2.592c0.372,0.3,0.798,0.543,1.278,0.729c0.48,0.186,1.182,0.39,2.106,0.612
	c0.924,0.222,1.575,0.468,1.953,0.738c0.378,0.27,0.567,0.648,0.567,1.134c0,0.486-0.201,0.876-0.603,1.17
	c-0.402,0.294-0.945,0.441-1.629,0.441c-1.368,0-2.688-0.552-3.96-1.656l-1.332,1.602c1.524,1.356,3.27,2.034,5.238,2.034
	c1.344,0,2.43-0.342,3.258-1.026c0.828-0.684,1.242-1.575,1.242-2.673c0-1.098-0.327-1.929-0.981-2.493
	c-0.654-0.564-1.626-1.002-2.916-1.314c-1.29-0.312-2.133-0.603-2.529-0.873s-0.594-0.66-0.594-1.17c0-0.51,0.198-0.891,0.594-1.143
	s0.903-0.378,1.521-0.378C228.249,174.148,228.876,174.256,229.512,174.472z"/>
<path fill="#FFFFFF" d="M253.865,174.472l0.018-1.98h-8.388v12.582h2.124v-5.184h5.58v-1.962h-5.58v-3.456H253.865z"/>
<path fill="#FFFFFF" d="M267.869,173.464c-0.828-0.648-2.202-0.972-4.122-0.972h-4.68v12.582h2.124v-4.23h2.79l3.006,4.23h2.7
	l-3.294-4.572c1.812-0.54,2.718-1.848,2.718-3.924C269.111,175.15,268.697,174.112,267.869,173.464z M263.837,178.918h-2.646v-4.5
	h2.7c1.14,0,1.932,0.153,2.376,0.459c0.444,0.306,0.666,0.87,0.666,1.692c0,0.822-0.216,1.419-0.648,1.791
	C265.853,178.732,265.037,178.918,263.837,178.918L263.837,178.918z"/>
<path fill="#FFFFFF" d="M285.131,178.693c0,1.266-0.429,2.343-1.287,3.231c-0.858,0.888-1.911,1.332-3.159,1.332
	c-1.248,0-2.301-0.444-3.159-1.332c-0.858-0.888-1.287-1.965-1.287-3.231c0-1.266,0.429-2.343,1.287-3.231
	c0.858-0.888,1.911-1.332,3.159-1.332c1.248,0,2.301,0.444,3.159,1.332C284.702,176.35,285.131,177.427,285.131,178.693z
	 M287.309,178.693c0-1.854-0.636-3.402-1.908-4.644c-1.272-1.242-2.844-1.863-4.716-1.863c-1.872,0-3.444,0.621-4.716,1.863
	c-1.272,1.242-1.908,2.79-1.908,4.644c0,1.854,0.636,3.402,1.908,4.644c1.272,1.242,2.844,1.863,4.716,1.863
	c1.872,0,3.444-0.621,4.716-1.863C286.673,182.095,287.309,180.547,287.309,178.693z"/>
<path fill="#FFFFFF" d="M294.815,175.246l4.374,8.73h1.188l4.392-8.73v9.828h2.124v-12.582h-3.294l-3.798,7.902l-3.798-7.902h-3.312
	v12.582h2.124V175.246z"/>
<path fill="#FFFFFF" d="M329.285,174.436v-1.944h-9.756v1.944h3.816v10.638h2.124v-10.638H329.285z"/>
<path fill="#FFFFFF" d="M336.412,185.074v-5.148h6.246v5.148h2.124v-12.582h-2.124v5.454h-6.246v-5.454h-2.124v12.582H336.412z"/>
<path fill="#FFFFFF" d="M350.974,172.492v12.582h9.054v-1.998h-6.93v-3.366h6.03v-1.89h-6.03v-3.33h6.714v-1.998H350.974z"/>
<path fill="#FFFFFF" d="M381.448,174.472l0.018-1.98h-8.388v12.582h2.124v-5.184h5.58v-1.962h-5.58v-3.456H381.448z"/>
<path fill="#FFFFFF" d="M395.452,173.464c-0.828-0.648-2.202-0.972-4.122-0.972h-4.68v12.582h2.124v-4.23h2.79l3.006,4.23h2.7
	l-3.294-4.572c1.812-0.54,2.718-1.848,2.718-3.924C396.694,175.15,396.28,174.112,395.452,173.464z M391.42,178.918h-2.646v-4.5h2.7
	c1.14,0,1.932,0.153,2.376,0.459c0.444,0.306,0.666,0.87,0.666,1.692c0,0.822-0.216,1.419-0.648,1.791
	C393.436,178.732,392.619,178.918,391.42,178.918L391.42,178.918z"/>
<path fill="#FFFFFF" d="M412.714,178.693c0,1.266-0.429,2.343-1.287,3.231c-0.858,0.888-1.911,1.332-3.159,1.332
	c-1.248,0-2.301-0.444-3.159-1.332c-0.858-0.888-1.287-1.965-1.287-3.231c0-1.266,0.429-2.343,1.287-3.231
	c0.858-0.888,1.911-1.332,3.159-1.332c1.248,0,2.301,0.444,3.159,1.332C412.284,176.35,412.714,177.427,412.714,178.693z
	 M414.892,178.693c0-1.854-0.636-3.402-1.908-4.644c-1.272-1.242-2.844-1.863-4.716-1.863c-1.872,0-3.444,0.621-4.716,1.863
	c-1.272,1.242-1.908,2.79-1.908,4.644c0,1.854,0.636,3.402,1.908,4.644c1.272,1.242,2.844,1.863,4.716,1.863
	c1.872,0,3.444-0.621,4.716-1.863C414.255,182.095,414.892,180.547,414.892,178.693z"/>
<path fill="#FFFFFF" d="M429.706,181.888l-7.308-9.396h-2.124v12.582h2.124v-9.18l7.128,9.18h2.304v-12.582h-2.124V181.888z"/>
<path fill="#FFFFFF" d="M446.59,174.436v-1.944h-9.756v1.944h3.816v10.638h2.124v-10.638H446.59z"/>
<path fill-rule="evenodd" clip-rule="evenodd" fill="#FFFFFF" d="M274,215h30v2h-30V215z"/>
<path fill-rule="evenodd" clip-rule="evenodd" fill="#FFFFFF" d="M274,3h30v2h-30V3z"/>
<path fill="#FFFFFF" d="M72.438,93.73h3.352l-6.795,22.453L57.58,82.413h-7.882l-11.416,33.77L31.488,93.73h4.53V82.413H8.747V93.73
	h5.708c1.178,0,2.265,0.988,2.265,2.245l15.855,49.487h7.973l11.325-32.692l10.238,32.692h9.15l17.033-50.745
	c0,0,0-0.988,1.087-0.988h5.708V82.413h-22.65V93.73z"/>
<path fill="#FFFFFF" d="M129.24,82.503h-8.335c0,0-19.116,44.817-21.291,51.553h-6.795v11.227h22.559v-11.137h-3.352l2.537-6.826
	h17.939c1.178,2.335,2.084,4.581,3.171,6.826h-3.352v11.137h26.093v-11.227h-6.795c-1.178-2.156-22.559-51.553-22.559-51.553H129.24
	z M118.187,116.093l4.983-12.484l5.345,12.484H118.187z"/>
<path fill="#FFFFFF" d="M221.014,134.056c0,0-2.356,0-2.356-2.245c0-6.646-2.174-12.305-5.617-16.885
	c3.443-3.413,5.617-7.814,5.617-14.55c0-7.993-4.53-18.053-19.116-18.053h-27.361V93.55h6.795v40.506h-6.795v11.317h26.183v-11.317
	h-5.798v-15.717c9.06,1.168,12.503,10.149,12.503,14.64c0,7.904,4.62,11.317,6.976,12.394h15.764v-11.317H221.014z M192.566,107.112
	V93.55h5.798c4.439,0,6.704,3.413,6.704,6.826c0,3.413-2.537,6.736-7.882,6.736H192.566z"/>
<path fill="#FFFFFF" d="M294.758,82.323h-27.089V93.73h5.436v40.236h-5.436v11.317h27.089c16.942,0,30.985-13.382,30.985-31.435
	C325.742,95.796,312.968,82.323,294.758,82.323z M287.962,93.73h4.711c12.231,0,18.21,9.969,18.21,20.118
	c0,10.059-4.711,20.118-18.21,20.118h-4.711V93.73z"/>
<path fill="#FFFFFF" d="M336.249,93.82h5.708v40.416h-5.708v11.137h26.002v-11.137h-5.708V93.82h5.708V82.593h-26.002V93.82z"/>
<path fill="#FFFFFF" d="M413.618,82.503h-8.335c0,0-19.116,44.817-21.291,51.553h-6.795v11.227h22.559v-11.137h-3.352l2.537-6.826
	h17.939c1.178,2.335,2.084,4.581,3.171,6.826h-3.352v11.137h26.093v-11.227h-6.795c-1.178-2.156-22.559-51.553-22.559-51.553
	H413.618z M402.565,116.093l4.983-12.484l5.345,12.484H402.565z"/>
<path fill="#FFFFFF" d="M505.392,134.056c0,0-2.356,0-2.356-2.245c0-6.646-2.174-12.305-5.617-16.885
	c3.443-3.413,5.617-7.814,5.617-14.55c0-7.993-4.53-18.053-19.116-18.053h-27.361V93.55h6.795v40.506h-6.795v11.317h26.183v-11.317
	h-5.798v-15.717c9.06,1.168,12.503,10.149,12.503,14.64c0,7.904,4.621,11.317,6.976,12.394h15.764v-11.317H505.392z
	 M476.944,107.112V93.55h5.798c4.439,0,6.704,3.413,6.704,6.826c0,3.413-2.537,6.736-7.882,6.736H476.944z"/>
<path fill="#FFFFFF" d="M549.693,93.64L549.693,93.64l-5.617,10.149L537.1,93.64h1.178V82.503h-23.737V93.64h5.617
	c0,0,1.178,1.168,13.59,21.286c0.453,0.808,1.178,2.874,1.178,4.67v14.37h-5.708v11.317h26.002v-11.317h-5.527v-14.37
	c0-1.257,0-3.503,1.087-4.67c12.503-20.118,13.59-21.286,13.59-21.286h5.617V82.503h-20.294v6.736V93.64z"/>
<path fill="#FFFFFF" d="M212.242,47.406c-0.96,1.048-2.14,1.572-3.54,1.572c-1.4,0-2.58-0.524-3.54-1.572
	c-0.96-1.048-1.44-2.32-1.44-3.816c0-1.496,0.48-2.772,1.44-3.828s2.14-1.584,3.54-1.584c1.4,0,2.58,0.528,3.54,1.584
	c0.96,1.056,1.44,2.332,1.44,3.828C213.682,45.087,213.202,46.359,212.242,47.406z M217.498,43.578c0-2.464-0.848-4.524-2.544-6.18
	c-1.696-1.656-3.784-2.484-6.264-2.484c-2.48,0-4.568,0.828-6.264,2.484c-1.696,1.656-2.544,3.716-2.544,6.18
	c0,2.464,0.848,4.524,2.544,6.18c1.696,1.656,3.784,2.484,6.264,2.484c2.48,0,4.568-0.828,6.264-2.484
	C216.65,48.102,217.498,46.042,217.498,43.578z"/>
<path fill="#FFFFFF" d="M230.794,35.298h-5.928v16.776h3.744v-4.68h2.232c2.48,0,4.324-0.48,5.532-1.44
	c1.208-0.96,1.812-2.476,1.812-4.548c0-2.072-0.588-3.608-1.764-4.608C235.246,35.799,233.37,35.298,230.794,35.298L230.794,35.298z
	 M231.13,44.154h-2.52v-5.64h2.136c1.232,0,2.14,0.204,2.724,0.612c0.584,0.408,0.876,1.096,0.876,2.064
	c0,0.968-0.224,1.704-0.672,2.208C233.226,43.902,232.378,44.154,231.13,44.154L231.13,44.154z"/>
<path fill="#FFFFFF" d="M245.313,35.298v16.776h12.36v-3.312h-8.616v-3.48h7.512V42.09h-7.512v-3.456h8.352v-3.336H245.313z"/>
<path fill="#FFFFFF" d="M277.149,36.618c-1.112-0.88-2.972-1.32-5.58-1.32h-6.36v16.776h3.744v-5.352h2.592l3.72,5.352h4.608
	l-4.248-6c2.128-0.784,3.192-2.52,3.192-5.208C278.817,38.914,278.261,37.498,277.149,36.618z M271.689,43.482h-2.736v-4.968h2.808
	c1.2,0,2.04,0.168,2.52,0.504c0.48,0.336,0.72,0.956,0.72,1.86c0,0.904-0.232,1.564-0.696,1.98
	C273.841,43.275,272.969,43.482,271.689,43.482L271.689,43.482z"/>
<path fill="#FFFFFF" d="M302.793,52.074l-7.248-16.776h-3.624l-7.248,16.776h3.984l1.56-3.624h7.032l1.56,3.624H302.793z
	 M295.833,45.162h-4.2l2.112-4.872L295.833,45.162z"/>
<path fill="#FFFFFF" d="M319.569,38.538v-3.24h-13.248v3.24h4.752v13.536h3.744V38.538H319.569z"/>
<path fill="#FFFFFF" d="M326.505,52.074h3.744V35.298h-3.744V52.074z"/>
<path fill="#FFFFFF" d="M349.976,47.406c-0.96,1.048-2.14,1.572-3.54,1.572c-1.4,0-2.58-0.524-3.54-1.572
	c-0.96-1.048-1.44-2.32-1.44-3.816c0-1.496,0.48-2.772,1.44-3.828s2.14-1.584,3.54-1.584c1.4,0,2.58,0.528,3.54,1.584
	c0.96,1.056,1.44,2.332,1.44,3.828C351.416,45.087,350.936,46.359,349.976,47.406z M355.232,43.578c0-2.464-0.848-4.524-2.544-6.18
	c-1.696-1.656-3.784-2.484-6.264-2.484c-2.48,0-4.568,0.828-6.264,2.484c-1.696,1.656-2.544,3.716-2.544,6.18
	c0,2.464,0.848,4.524,2.544,6.18c1.696,1.656,3.784,2.484,6.264,2.484c2.48,0,4.568-0.828,6.264-2.484
	C354.384,48.102,355.232,46.042,355.232,43.578z"/>
<path fill="#FFFFFF" d="M374.336,46.098l-8.232-10.8H362.6v16.776h3.744V41.562l7.992,10.512h3.744V35.298h-3.744V46.098z"/>
</svg>
